<svg xmlns="http://www.w3.org/2000/svg" width="319.1" height="138.5" viewBox="0 0 319.1 138.5"><style type="text/css">.st0{fill:#FFFFFF;}</style><path class="st0" d="M67.4 22c-2.4-6.9-5.5.6-5.5.6l-6.4 34.5c7.5-8.4 13.5-30.6 11.9-35.1zm24.6.3c-.6-3.3-2.9-2.7-4-1.2-.8 1.1-1.2 2.3-1.5 3.6l-6 33.2c7.7-7.8 12.4-31 11.5-35.6zm-49.5 92c-.3 1.3-.4 2.6-.2 3.9.4 1.9 1.5 3.5 4.5.4 3.3-3.4 7.5-26 4.2-36.9l-8.5 32.6zm110.5-45.9l14.8-68.4h-118.4c-12 0-22.3 8.4-24.7 20l-8.9 42.5h32.7l8.5-40.4c.5-2.6 1.7-5 3.5-7 1.2-1.3 2.8-2.4 4.5-2.6 4.4-.3 8.8 2.5 9.1 8.5.6 13.2-7.8 44-24.4 49-3.5 1-24.8.5-35.8.4l-13.9 67.9h117.9c11.7 0 21.8-8.1 24.2-19.6l9.5-43.8c-13.9 0-28.4-.1-28.6 1.1-.5 2.7-6.8 38.2-8.6 43.2-1.9 5-5.2 8.7-9.6 8.2-4.6-.5-7.4-3.2-6.6-16.1.6-10.6 5.1-24.8 12-33 4.1-4.9 9.4-8.9 16.3-9.9 3.8-.5 18.2-.1 26.5 0zm-99.1 50.6c-3.1 7.9-8.8 9.4-13.2 7.5-2-.9-3-2.7-3.5-4.5-.6-2-.6-4.1-.1-6.2l9.6-42.7c.9-2.5 9.7-2.5 12.2 8.5s-1.9 29.6-5 37.4zm20.4-49.2c-2.3.8-4.6 1.2-7 1.4-2.8.2-6.3 0-7.1-1.5-1.5-2.8.4-4.8 3.2-4.9 7.3-.3 10-2.7 10-2.7l8.4-39.1c.4-1.8 1-3.6 1.9-5.2 1.3-2.3 3.5-4.9 6.6-4.9 5.7 0 8.2 2.8 8.8 6.9.6 4.1-4.8 28.3-7.7 34-2.5 5-7.5 12.6-17.1 16zm31.5.8c-2.7-1.7-3.6-3.4-3.9-6.5 0 0-2.8 6-9.7 6.9-5.7.8-9-1.6-6.7-4.6.9-1.2 2.5-1.9 4-1.9 2.2 0 6-.5 7.7-3.5 2.5-4.4 6-10 7.2-15.7 1.3-5.7 2.8-6.3 4.4-6.3s3.1 1.6.6 10.7-3.5 13.5-1 14.4c2.5.9 7.2.9 11.3-7.8 4.1-8.8 3.8-13.5 4.7-15.7 1-2.2 6-3.1 6 1.6s-4.1 17-7.5 22.6c-3.4 5.6-12.5 8.6-17.1 5.8zm-2.6 45.9c.5 4.4 1.9 3.8 2.9 2.7.8-.9 1.2-1.9 1.5-3l7.1-34.5c-6.8 8.7-12.1 29.9-11.5 34.8zm85-113.6h16.3l-1 5.5h-10.3l-1.3 7h9.7l-1 5.4h-9.6l-2.1 12.1h-5.9l5.2-30zm12.6 30l2.3-13c.6-3.3.8-6.9 1-8.8h5.1c-.1 1.5-.2 2.9-.4 4.5h.1c1.4-2.9 3.7-4.9 6.4-4.9h1.1l-1.2 6.2h-.9c-3.8 0-5.6 3.7-6.3 7.9l-1.4 8.1h-5.8zm36.6-5.7c1.2.6 3.3 1.5 5.2 1.5 1.7 0 2.6-.9 2.6-2s-.7-1.8-2.5-2.8c-2.3-1.2-4.2-3.1-4.2-5.8 0-4.5 3.7-7.5 8.8-7.5 2.3 0 4.2.5 5.2 1.1l-1.4 4.5c-.8-.4-2.3-.9-4-.9-1.6 0-2.6.7-2.6 1.9 0 .9.8 1.6 2.4 2.5 2.2 1.2 4.5 2.9 4.5 6 0 5-3.9 7.7-9.3 7.7-2.6 0-4.9-.8-6.1-1.7l1.4-4.5zm16.4 5.7l5.6-31.6h5.9l-2.3 12.6h.1c1.7-2 3.8-3.3 6.4-3.3 3.1 0 5.1 2.1 5.1 5.9 0 1-.2 2.7-.4 3.9l-2.2 12.5h-5.9l2.1-11.9c.2-.8.2-1.8.2-2.7 0-1.5-.5-2.5-2-2.5-2.1 0-4.2 2.8-4.9 7.1l-1.8 10h-5.9zm-74.8 17.5h5.9l-4.3 24.4h10.7l-1 5.6h-16.6l5.3-30zm14.5 30l3.8-21.8h5.9l-3.8 21.8h-5.9zm7.5-24.5c-1.6 0-2.8-1.2-2.8-3.1 0-2.2 1.6-3.7 3.4-3.7 1.8 0 3 1.2 3 3.2 0 2.3-1.6 3.6-3.6 3.6zm2.6 34l4.5-26.4h-2.6l.9-4.9h2.6l.2-1.1c.4-2.6 1.4-5.3 3.4-7.1 1.6-1.5 3.7-2 5.7-2 1.4 0 2.5.2 3.1.5l-1 5.1c-.5-.2-1.1-.4-1.9-.4-1.9 0-3.1 1.8-3.5 4l-.2 1.1h4l-.9 4.9h-4l-4.4 25.4-5.9.9zm34.2-9.5l5.6-31.6h5.9l-5.6 31.6h-5.9zm10.9 0l3.8-21.8h5.9l-3.8 21.8h-5.9zm7.5-24.5c-1.6 0-2.8-1.2-2.8-3.1 0-2.2 1.6-3.7 3.4-3.7 1.8 0 3 1.2 3 3.2-.1 2.3-1.7 3.6-3.6 3.6zm3.3 24.5l2.6-14.7c.5-2.8.8-5.1 1.1-7.1h5.2l-.4 3.6h.1c1.9-2.8 4.4-4.1 7-4.1 3.3 0 5.2 2.2 5.2 6 0 1-.2 2.6-.3 3.7l-2.2 12.6h-6l2.1-12.1c.1-.8.2-1.6.2-2.4 0-1.6-.5-2.6-2-2.6-1.9 0-4.2 2.6-5 7.4l-1.7 9.7h-5.9zm44.6-5.7c1.2.6 3.3 1.5 5.2 1.5 1.7 0 2.6-.9 2.6-2s-.7-1.8-2.5-2.8c-2.3-1.2-4.2-3.1-4.2-5.8 0-4.5 3.7-7.5 8.8-7.5 2.3 0 4.2.5 5.2 1.1l-1.4 4.5c-.8-.4-2.3-.9-4-.9-1.6 0-2.6.7-2.6 1.9 0 .9.8 1.6 2.4 2.5 2.2 1.2 4.5 2.9 4.5 6 0 5-3.9 7.7-9.3 7.7-2.6 0-4.9-.8-6.1-1.7l1.4-4.5zm-109.1 41c0 8-5.1 13.8-12 13.8-5.1 0-8.5-3.6-8.5-9 0-7.5 4.9-13.8 12-13.8 5.4 0 8.5 4 8.5 9zm-14.4 4.7c0 2.5 1.2 4.2 3.3 4.2 3.2 0 5-5.2 5-8.9 0-2-.8-4.1-3.2-4.1-3.4 0-5.1 5.4-5.1 8.8zm14.6 8.6l2.3-13c.6-3.3.8-6.9 1-8.8h5.1c-.1 1.5-.2 2.9-.4 4.5h.1c1.4-2.9 3.7-4.9 6.4-4.9h1.1l-1.2 6.2h-.9c-3.8 0-5.6 3.7-6.3 7.9l-1.4 8.1h-5.8zm29.5-.4l2.1-12.2-5.4-17.8h6.3l1.8 7.6c.5 2.5.8 3.9 1.1 5.4h.1c.8-1.6 1.7-3.3 2.8-5.5l4.2-7.6h7.1l-12 17.6-2.1 12.4h-6zm35.3-13.3c0 8-5.1 13.8-12 13.8-5.1 0-8.5-3.6-8.5-9 0-7.5 4.9-13.8 12-13.8 5.4 0 8.5 4 8.5 9zm-14.4 4.7c0 2.5 1.2 4.2 3.3 4.2 3.2 0 5-5.2 5-8.9 0-2-.8-4.1-3.2-4.1-3.4 0-5.1 5.4-5.1 8.8zm36.4-13.2l-2.6 14.7c-.5 2.8-.8 5.1-1.1 7.1h-5.2l.4-3.5h-.1c-2.1 2.8-4.5 4.1-6.9 4.1-3.3 0-5.2-2-5.2-6.1 0-1.2.1-2.5.4-4l2.1-12.2h5.9l-2.1 11.7c-.2 1-.3 2.1-.3 2.9 0 1.4.5 2.5 2 2.5 2 0 4.1-2.6 4.9-6.9l1.8-10.1h6zm12.6-5.9l-1 5.9h4.3l-.9 4.9h-4.3l-1.4 7.4c-.2.8-.3 2-.3 2.8 0 1.1.4 1.8 1.7 1.8.5 0 1.1 0 1.6-.1l-.7 5c-.8.3-2.3.5-3.5.5-3.6 0-5.3-2-5.3-4.7 0-1.2.1-2.4.5-4.1l1.5-8.6h-2.6l.8-4.9h2.6l.7-4.1 6.3-1.8zm3.8 27.7l5.6-31.6h5.9l-2.3 12.6h.1c1.7-2 3.8-3.3 6.4-3.3 3.1 0 5.1 2.1 5.1 5.9 0 1-.2 2.7-.4 3.9l-2.2 12.5h-5.9l2.1-11.9c.2-.8.2-1.8.2-2.7 0-1.5-.5-2.5-2-2.5-2.1 0-4.2 2.8-4.9 7.1l-1.8 10h-5.9zm-61.1-65.8c.6 1.2.8 2.7.7 4.3-.1 1-.3 2.3-.7 4.1h-14.3c-.4 2.1 0 3.6 1 4.4.6.5 1.5.8 2.6.8s2.1-.3 3-1c.4-.3.9-.8 1.3-1.4h5.6c-.4 1.2-1.3 2.5-2.7 3.8-2.2 2-4.9 3-8.2 3-2.7 0-4.8-.9-6.5-2.6-1.7-1.7-2.1-4.5-1.3-8.4.8-3.6 2.3-6.4 4.5-8.3 2.2-1.9 4.8-2.9 7.8-2.9 1.7 0 3.2.3 4.5 1 1.2.8 2.1 1.8 2.7 3.2zm-13.4 4.9h8.5c.2-1.4 0-2.5-.6-3.3-.6-.7-1.5-1.1-2.7-1.1-1.3 0-2.3.4-3.2 1.2-.9.8-1.5 1.8-2 3.2zm77.9-4.9c.6 1.2.8 2.7.7 4.3-.1 1-.3 2.3-.7 4.1h-14.3c-.4 2.1 0 3.6 1 4.4.6.5 1.5.8 2.6.8s2.1-.3 3-1c.4-.3.9-.8 1.3-1.4h5.6c-.4 1.2-1.3 2.5-2.7 3.8-2.2 2-4.9 3-8.2 3-2.7 0-4.8-.9-6.5-2.6-1.7-1.7-2.1-4.5-1.3-8.4.8-3.6 2.3-6.4 4.5-8.3 2.2-1.9 4.8-2.9 7.8-2.9 1.7 0 3.2.3 4.5 1 1.2.8 2.1 1.8 2.7 3.2zm-13.4 4.9h8.5c.2-1.4 0-2.5-.6-3.3-.6-.7-1.5-1.1-2.7-1.1-1.3 0-2.3.4-3.2 1.2-.9.8-1.5 1.8-2 3.2zm-52.9-52.4c.6 1.2.8 2.7.7 4.3-.1 1-.3 2.3-.7 4.1h-14.3c-.4 2.1 0 3.6 1 4.4.6.5 1.5.8 2.6.8s2.1-.3 3-1c.4-.3.9-.8 1.3-1.4h5.6c-.4 1.2-1.3 2.5-2.7 3.8-2.2 2-4.9 3-8.2 3-2.7 0-4.8-.9-6.5-2.6-1.7-1.7-2.1-4.5-1.3-8.4.8-3.6 2.3-6.4 4.5-8.3 2.2-1.9 4.8-2.9 7.8-2.9 1.7 0 3.2.3 4.5 1 1.1.8 2.1 1.8 2.7 3.2zm-13.4 4.9h8.5c.2-1.4 0-2.5-.6-3.3-.6-.7-1.5-1.1-2.7-1.1-1.3 0-2.3.4-3.2 1.2-.9.8-1.6 1.8-2 3.2zm-61.1 118.3l4.5-26.4h-2.6l.9-4.9h2.6l.2-1.1c.4-2.6 1.4-5.3 3.4-7.1 1.6-1.5 3.7-2 5.7-2 1.4 0 2.5.2 3.1.5l-1 5.1c-.5-.2-1.1-.4-1.9-.4-1.9 0-3.1 1.8-3.5 4l-.2 1.1h4l-.9 4.9h-4l-4.4 25.4-5.9.9z"/></svg>