<?xml version="1.0" encoding="utf-8"?>
<!-- Generator: Adobe Illustrator 19.2.0, SVG Export Plug-In . SVG Version: 6.00 Build 0)  -->
<svg version="1.1" id="Layer_1" xmlns="http://www.w3.org/2000/svg" xmlns:xlink="http://www.w3.org/1999/xlink" x="0px" y="0px"
	 width="319.1px" height="138.5px" viewBox="0 0 319.1 138.5" style="enable-background:new 0 0 319.1 138.5;" xml:space="preserve"
	>
<style type="text/css">
	.st0{fill:#FFFFFF;}
</style>
<g>
	<path class="st0" d="M67.4,22c-2.4-6.9-5.5,0.6-5.5,0.6l-6.4,34.5C63,48.7,69,26.5,67.4,22z"/>
	<path class="st0" d="M92,22.3c-0.6-3.3-2.9-2.7-4-1.2c-0.8,1.1-1.2,2.3-1.5,3.6l-6,33.2C88.2,50.1,92.9,26.9,92,22.3z"/>
	<path class="st0" d="M42.5,114.3c-0.3,1.3-0.4,2.6-0.2,3.9c0.4,1.9,1.5,3.5,4.5,0.4c3.3-3.4,7.5-26,4.2-36.9L42.5,114.3z"/>
	<path class="st0" d="M153,68.4L167.8,0H49.4C37.4,0,27.1,8.4,24.7,20l-8.9,42.5h32.7l8.5-40.4c0.5-2.6,1.7-5,3.5-7
		c1.2-1.3,2.8-2.4,4.5-2.6c4.4-0.3,8.8,2.5,9.1,8.5c0.6,13.2-7.8,44-24.4,49c-3.5,1-24.8,0.5-35.8,0.4L0,138.3h117.9
		c11.7,0,21.8-8.1,24.2-19.6l9.5-43.8c-13.9,0-28.4-0.1-28.6,1.1c-0.5,2.7-6.8,38.2-8.6,43.2c-1.9,5-5.2,8.7-9.6,8.2
		c-4.6-0.5-7.4-3.2-6.6-16.1c0.6-10.6,5.1-24.8,12-33c4.1-4.9,9.4-8.9,16.3-9.9C130.3,67.9,144.7,68.3,153,68.4z M53.9,119
		c-3.1,7.9-8.8,9.4-13.2,7.5c-2-0.9-3-2.7-3.5-4.5c-0.6-2-0.6-4.1-0.1-6.2l9.6-42.7c0.9-2.5,9.7-2.5,12.2,8.5
		C61.4,92.6,57,111.2,53.9,119z M74.3,69.8c-2.3,0.8-4.6,1.2-7,1.4c-2.8,0.2-6.3,0-7.1-1.5c-1.5-2.8,0.4-4.8,3.2-4.9
		c7.3-0.3,10-2.7,10-2.7L81.8,23c0.4-1.8,1-3.6,1.9-5.2c1.3-2.3,3.5-4.9,6.6-4.9c5.7,0,8.2,2.8,8.8,6.9c0.6,4.1-4.8,28.3-7.7,34
		C88.9,58.8,83.9,66.4,74.3,69.8z M105.8,70.6c-2.7-1.7-3.6-3.4-3.9-6.5c0,0-2.8,6-9.7,6.9c-5.7,0.8-9-1.6-6.7-4.6
		c0.9-1.2,2.5-1.9,4-1.9c2.2,0,6-0.5,7.7-3.5c2.5-4.4,6-10,7.2-15.7c1.3-5.7,2.8-6.3,4.4-6.3s3.1,1.6,0.6,10.7
		c-2.5,9.1-3.5,13.5-1,14.4c2.5,0.9,7.2,0.9,11.3-7.8c4.1-8.8,3.8-13.5,4.7-15.7c1-2.2,6-3.1,6,1.6c0,4.7-4.1,17-7.5,22.6
		C119.5,70.4,110.4,73.4,105.8,70.6z"/>
	<path class="st0" d="M103.2,116.5c0.5,4.4,1.9,3.8,2.9,2.7c0.8-0.9,1.2-1.9,1.5-3l7.1-34.5C107.9,90.4,102.6,111.6,103.2,116.5z"/>
</g>
<path class="st0" d="M188.2,2.9h16.3l-1,5.5h-10.3l-1.3,7h9.7l-1,5.4H191l-2.1,12.1H183L188.2,2.9z"/>
<path class="st0" d="M200.8,32.9l2.3-13c0.6-3.3,0.8-6.9,1-8.8h5.1c-0.1,1.5-0.2,2.9-0.4,4.5h0.1c1.4-2.9,3.7-4.9,6.4-4.9
	c0.4,0,0.7,0,1.1,0l-1.2,6.2c-0.3,0-0.6,0-0.9,0c-3.8,0-5.6,3.7-6.3,7.9l-1.4,8.1H200.8z"/>
<path class="st0" d="M237.4,27.2c1.2,0.6,3.3,1.5,5.2,1.5c1.7,0,2.6-0.9,2.6-2c0-1.1-0.7-1.8-2.5-2.8c-2.3-1.2-4.2-3.1-4.2-5.8
	c0-4.5,3.7-7.5,8.8-7.5c2.3,0,4.2,0.5,5.2,1.1l-1.4,4.5c-0.8-0.4-2.3-0.9-4-0.9c-1.6,0-2.6,0.7-2.6,1.9c0,0.9,0.8,1.6,2.4,2.5
	c2.2,1.2,4.5,2.9,4.5,6c0,5-3.9,7.7-9.3,7.7c-2.6,0-4.9-0.8-6.1-1.7L237.4,27.2z"/>
<path class="st0" d="M253.8,32.9l5.6-31.6h5.9L263,13.9h0.1c1.7-2,3.8-3.3,6.4-3.3c3.1,0,5.1,2.1,5.1,5.9c0,1-0.2,2.7-0.4,3.9
	L272,32.9h-5.9l2.1-11.9c0.2-0.8,0.2-1.8,0.2-2.7c0-1.5-0.5-2.5-2-2.5c-2.1,0-4.2,2.8-4.9,7.1l-1.8,10H253.8z"/>
<path class="st0" d="M179,50.4h5.9l-4.3,24.4h10.7l-1,5.6h-16.6L179,50.4z"/>
<path class="st0" d="M193.5,80.4l3.8-21.8h5.9l-3.8,21.8H193.5z M201,55.9c-1.6,0-2.8-1.2-2.8-3.1c0-2.2,1.6-3.7,3.4-3.7
	c1.8,0,3,1.2,3,3.2C204.6,54.6,203,55.9,201,55.9L201,55.9z"/>
<path class="st0" d="M203.6,89.9l4.5-26.4h-2.6l0.9-4.9h2.6l0.2-1.1c0.4-2.6,1.4-5.3,3.4-7.1c1.6-1.5,3.7-2,5.7-2
	c1.4,0,2.5,0.2,3.1,0.5l-1,5.1c-0.5-0.2-1.1-0.4-1.9-0.4c-1.9,0-3.1,1.8-3.5,4l-0.2,1.1h4l-0.9,4.9h-4l-4.4,25.4L203.6,89.9z"/>
<path class="st0" d="M237.8,80.4l5.6-31.6h5.9l-5.6,31.6H237.8z"/>
<path class="st0" d="M248.7,80.4l3.8-21.8h5.9l-3.8,21.8H248.7z M256.2,55.9c-1.6,0-2.8-1.2-2.8-3.1c0-2.2,1.6-3.7,3.4-3.7
	c1.8,0,3,1.2,3,3.2C259.7,54.6,258.1,55.9,256.2,55.9L256.2,55.9z"/>
<path class="st0" d="M259.5,80.4l2.6-14.7c0.5-2.8,0.8-5.1,1.1-7.1h5.2l-0.4,3.6h0.1c1.9-2.8,4.4-4.1,7-4.1c3.3,0,5.2,2.2,5.2,6
	c0,1-0.2,2.6-0.3,3.7l-2.2,12.6h-6l2.1-12.1c0.1-0.8,0.2-1.6,0.2-2.4c0-1.6-0.5-2.6-2-2.6c-1.9,0-4.2,2.6-5,7.4l-1.7,9.7H259.5z"/>
<path class="st0" d="M304.1,74.7c1.2,0.6,3.3,1.5,5.2,1.5c1.7,0,2.6-0.9,2.6-2c0-1.1-0.7-1.8-2.5-2.8c-2.3-1.2-4.2-3.1-4.2-5.8
	c0-4.5,3.7-7.5,8.8-7.5c2.3,0,4.2,0.5,5.2,1.1l-1.4,4.5c-0.8-0.4-2.3-0.9-4-0.9c-1.6,0-2.6,0.7-2.6,1.9c0,0.9,0.8,1.6,2.4,2.5
	c2.2,1.2,4.5,2.9,4.5,6c0,5-3.9,7.7-9.3,7.7c-2.6,0-4.9-0.8-6.1-1.7L304.1,74.7z"/>
<path class="st0" d="M195,115.7c0,8-5.1,13.8-12,13.8c-5.1,0-8.5-3.6-8.5-9c0-7.5,4.9-13.8,12-13.8C191.9,106.7,195,110.7,195,115.7
	z M180.6,120.4c0,2.5,1.2,4.2,3.3,4.2c3.2,0,5-5.2,5-8.9c0-2-0.8-4.1-3.2-4.1C182.3,111.6,180.6,117,180.6,120.4z"/>
<path class="st0" d="M195.2,129l2.3-13c0.6-3.3,0.8-6.9,1-8.8h5.1c-0.1,1.5-0.2,2.9-0.4,4.5h0.1c1.4-2.9,3.7-4.9,6.4-4.9
	c0.4,0,0.7,0,1.1,0l-1.2,6.2c-0.3,0-0.6,0-0.9,0c-3.8,0-5.6,3.7-6.3,7.9l-1.4,8.1H195.2z"/>
<path class="st0" d="M224.7,128.6l2.1-12.2l-5.4-17.8h6.3l1.8,7.6c0.5,2.5,0.8,3.9,1.1,5.4h0.1c0.8-1.6,1.7-3.3,2.8-5.5l4.2-7.6h7.1
	l-12,17.6l-2.1,12.4H224.7z"/>
<path class="st0" d="M260,115.3c0,8-5.1,13.8-12,13.8c-5.1,0-8.5-3.6-8.5-9c0-7.5,4.9-13.8,12-13.8C256.9,106.3,260,110.3,260,115.3
	z M245.6,120c0,2.5,1.2,4.2,3.3,4.2c3.2,0,5-5.2,5-8.9c0-2-0.8-4.1-3.2-4.1C247.3,111.2,245.6,116.6,245.6,120z"/>
<path class="st0" d="M282,106.8l-2.6,14.7c-0.5,2.8-0.8,5.1-1.1,7.1h-5.2l0.4-3.5l-0.1,0c-2.1,2.8-4.5,4.1-6.9,4.1
	c-3.3,0-5.2-2-5.2-6.1c0-1.2,0.1-2.5,0.4-4l2.1-12.2h5.9l-2.1,11.7c-0.2,1-0.3,2.1-0.3,2.9c0,1.4,0.5,2.5,2,2.5c2,0,4.1-2.6,4.9-6.9
	l1.8-10.1H282z"/>
<path class="st0" d="M294.6,100.9l-1,5.9h4.3l-0.9,4.9h-4.3l-1.4,7.4c-0.2,0.8-0.3,2-0.3,2.8c0,1.1,0.4,1.8,1.7,1.8
	c0.5,0,1.1,0,1.6-0.1l-0.7,5c-0.8,0.3-2.3,0.5-3.5,0.5c-3.6,0-5.3-2-5.3-4.7c0-1.2,0.1-2.4,0.5-4.1l1.5-8.6h-2.6l0.8-4.9h2.6
	l0.7-4.1L294.6,100.9z"/>
<path class="st0" d="M298.4,128.6l5.6-31.6h5.9l-2.3,12.6h0.1c1.7-2,3.8-3.3,6.4-3.3c3.1,0,5.1,2.1,5.1,5.9c0,1-0.2,2.7-0.4,3.9
	l-2.2,12.5h-5.9l2.1-11.9c0.2-0.8,0.2-1.8,0.2-2.7c0-1.5-0.5-2.5-2-2.5c-2.1,0-4.2,2.8-4.9,7.1l-1.8,10H298.4z"/>
<path class="st0" d="M237.3,62.8c0.6,1.2,0.8,2.7,0.7,4.3c-0.1,1-0.3,2.3-0.7,4.1H223c-0.4,2.1,0,3.6,1,4.4c0.6,0.5,1.5,0.8,2.6,0.8
	c1.1,0,2.1-0.3,3-1c0.4-0.3,0.9-0.8,1.3-1.4h5.6c-0.4,1.2-1.3,2.5-2.7,3.8c-2.2,2-4.9,3-8.2,3c-2.7,0-4.8-0.9-6.5-2.6
	c-1.7-1.7-2.1-4.5-1.3-8.4c0.8-3.6,2.3-6.4,4.5-8.3c2.2-1.9,4.8-2.9,7.8-2.9c1.7,0,3.2,0.3,4.5,1C235.8,60.4,236.7,61.4,237.3,62.8z
	 M223.9,67.7h8.5c0.2-1.4,0-2.5-0.6-3.3c-0.6-0.7-1.5-1.1-2.7-1.1c-1.3,0-2.3,0.4-3.2,1.2C225,65.3,224.4,66.3,223.9,67.7z"/>
<path class="st0" d="M301.8,62.8c0.6,1.2,0.8,2.7,0.7,4.3c-0.1,1-0.3,2.3-0.7,4.1h-14.3c-0.4,2.1,0,3.6,1,4.4
	c0.6,0.5,1.5,0.8,2.6,0.8c1.1,0,2.1-0.3,3-1c0.4-0.3,0.9-0.8,1.3-1.4h5.6c-0.4,1.2-1.3,2.5-2.7,3.8c-2.2,2-4.9,3-8.2,3
	c-2.7,0-4.8-0.9-6.5-2.6c-1.7-1.7-2.1-4.5-1.3-8.4c0.8-3.6,2.3-6.4,4.5-8.3c2.2-1.9,4.8-2.9,7.8-2.9c1.7,0,3.2,0.3,4.5,1
	C300.3,60.4,301.2,61.4,301.8,62.8z M288.4,67.7h8.5c0.2-1.4,0-2.5-0.6-3.3c-0.6-0.7-1.5-1.1-2.7-1.1c-1.3,0-2.3,0.4-3.2,1.2
	C289.5,65.3,288.9,66.3,288.4,67.7z"/>
<path class="st0" d="M235.5,15.3c0.6,1.2,0.8,2.7,0.7,4.3c-0.1,1-0.3,2.3-0.7,4.1h-14.3c-0.4,2.1,0,3.6,1,4.4
	c0.6,0.5,1.5,0.8,2.6,0.8c1.1,0,2.1-0.3,3-1c0.4-0.3,0.9-0.8,1.3-1.4h5.6c-0.4,1.2-1.3,2.5-2.7,3.8c-2.2,2-4.9,3-8.2,3
	c-2.7,0-4.8-0.9-6.5-2.6c-1.7-1.7-2.1-4.5-1.3-8.4c0.8-3.6,2.3-6.4,4.5-8.3c2.2-1.9,4.8-2.9,7.8-2.9c1.7,0,3.2,0.3,4.5,1
	C233.9,12.9,234.9,13.9,235.5,15.3z M222.1,20.2h8.5c0.2-1.4,0-2.5-0.6-3.3c-0.6-0.7-1.5-1.1-2.7-1.1c-1.3,0-2.3,0.4-3.2,1.2
	C223.2,17.8,222.5,18.8,222.1,20.2z"/>
<path class="st0" d="M161,138.5l4.5-26.4h-2.6l0.9-4.9h2.6l0.2-1.1c0.4-2.6,1.4-5.3,3.4-7.1c1.6-1.5,3.7-2,5.7-2
	c1.4,0,2.5,0.2,3.1,0.5l-1,5.1c-0.5-0.2-1.1-0.4-1.9-0.4c-1.9,0-3.1,1.8-3.5,4l-0.2,1.1h4l-0.9,4.9h-4l-4.4,25.4L161,138.5z"/>
<g>
</g>
<g>
</g>
<g>
</g>
<g>
</g>
<g>
</g>
<g>
</g>
<g>
</g>
<g>
</g>
<g>
</g>
<g>
</g>
<g>
</g>
<g>
</g>
<g>
</g>
<g>
</g>
<g>
</g>
</svg>
